<?xml version="1.0" standalone="no"?><!DOCTYPE svg PUBLIC "-//W3C//DTD SVG 1.1//EN" "http://www.w3.org/Graphics/SVG/1.1/DTD/svg11.dtd"><svg t="1604912334690" class="icon" viewBox="0 0 1024 1024" version="1.1" xmlns="http://www.w3.org/2000/svg" p-id="3936" width="32" height="32" xmlns:xlink="http://www.w3.org/1999/xlink"><defs><style type="text/css"></style></defs><path d="M142.456 429.848l90.32 337.088a26.84 26.84 0 0 0 32.872 18.984l333.384-89.328a26.84 26.84 0 0 0 18.976-32.88l-90.32-337.088a26.84 26.84 0 0 0-32.872-18.976L161.432 396.976a26.84 26.84 0 0 0-18.976 32.88z m-17.856-83.744L501.28 245.176c33.368-8.936 67.728 11.12 76.76 44.808L679.92 670.28c9.024 33.68-10.704 68.24-44.064 77.176L259.184 848.4c-33.36 8.936-67.728-11.12-76.752-44.808L80.536 423.28c-9.032-33.68 10.704-68.24 44.064-77.184zM263.6 504.304c21.48-5.76 34.184-28 28.368-49.68-5.808-21.68-27.928-34.6-49.408-28.84-21.472 5.752-34.176 28-28.368 49.68 5.816 21.68 27.936 34.592 49.408 28.84z m272 161.072c21.48-5.76 34.176-28 28.368-49.68-5.808-21.688-27.928-34.6-49.408-28.848-21.48 5.76-34.176 28-28.368 49.68 5.808 21.68 27.936 34.6 49.408 28.848zM397.52 585.896c21.48-5.76 34.176-28 28.368-49.68-5.808-21.68-27.928-34.6-49.408-28.84-21.48 5.76-34.176 28-28.368 49.68 5.808 21.68 27.928 34.6 49.408 28.84z m245.648-269.632c-3.976 12.24-17.032 18.96-29.152 15.024-12.12-3.936-18.72-17.048-14.744-29.28l7.96-27.336c7.648-23.544 32.752-36.488 56.08-28.912l240.2 78.04c23.32 7.584 36.016 32.808 28.368 56.352l-78.8 242.512c-7.648 23.544-32.752 36.488-56.072 28.912l-108.264-34.512c-12.12-3.944-18.72-17.056-14.744-29.288 3.976-12.24 17.024-18.96 29.144-15.032l81.168 25.872a26.84 26.84 0 0 0 33.68-17.28l61.16-188.24a26.84 26.84 0 0 0-17.232-33.816l-185.952-60.416a25.84 25.84 0 0 0-32.8 17.4z m74 172.76c-17.632-5.72-27.232-24.784-21.448-42.576 5.784-17.792 24.752-27.576 42.376-21.848 17.624 5.72 27.224 24.792 21.44 42.576-5.784 17.792-24.752 27.576-42.376 21.848z" p-id="3937" data-spm-anchor-id="a313x.7781069.0.i7" class="selected" fill="#909399"></path></svg>